PathFileType	4	(X/Y/Z)	/Users/visionmauri/Downloads/Videos/OAW11-top_Sports2D/OAW11-top_Sports2D_m_person00.trc
DataRate	CameraRate	NumFrames	NumMarkers	Units	OrigDataRate	OrigDataStartFrame	OrigNumFrames
30.0	30.0	11	22	m	30.0	1624	2166
Frame#	Time	Hip			RHip			RKnee			RAnkle			RBigToe			RSmallToe			RHeel			LHip			LKnee			LAnkle			LBigToe			LSmallToe			LHeel			Neck			Head			Nose			RShoulder			RElbow			RWrist			LShoulder			LElbow			LWrist			
		X1	Y1	Z1	X2	Y2	Z2	X3	Y3	Z3	X4	Y4	Z4	X5	Y5	Z5	X6	Y6	Z6	X7	Y7	Z7	X8	Y8	Z8	X9	Y9	Z9	X10	Y10	Z10	X11	Y11	Z11	X12	Y12	Z12	X13	Y13	Z13	X14	Y14	Z14	X15	Y15	Z15	X16	Y16	Z16	X17	Y17	Z17	X18	Y18	Z18	X19	Y19	Z19	X20	Y20	Z20	X21	Y21	Z21	X22	Y22	Z22
1624	54.15833718244804	2.2119754286088154	-0.7144732707372712	0.0301	2.409235141182789	-0.6717155082308199	0.0301	2.6080127161046534	-1.116906642814713	0.129	2.8308407674049727	-1.5493667774484638	0.023	2.804400347117127	-1.6925039461152922	0.2179	2.9244168959862558	-1.627333516393974	0.1804	2.8914171470968077	-1.6961111285045936	-0.0119	2.0809817249533986	-0.8679262235796299	0.0301	2.3112532039347697	-1.3373200718447686	0.129	2.585737414767509	-1.86596482461541	0.023	2.808118380996327	-2.1123560544997524	0.2179	2.646205152667587	-2.173288158885316	0.1804	2.688520881348398	-2.025263205836021	-0.0119	1.7000757773864987	0.1379991268171311	0.0008	1.547949232263699	0.41301269866097984	0.0655	1.6715635055162321	0.27452605437303096	0.1076	2.0619537590523875	0.1161762812839561	-0.01275	2.478613726801045	-0.23227736629884627	0.0702	2.8499120429735645	-0.45809966919600104	0.1076	1.5031662584974654	-0.15941193764025133	-0.01275	1.679091357366362	-0.6979036709487064	0.0702	1.8181512986337907	-1.1167669087265673	0.1076
1625	54.19168591224018	2.209019735286605	-0.6806754593199575	0.0301	2.4029029441451377	-0.6419237959725541	0.0301	2.6073828278848716	-1.1026363434039106	0.129	2.8257137511226063	-1.5405911136089359	0.023	2.8093520810144588	-1.7189955862031827	0.2179	2.922058834793811	-1.6506075342100572	0.1804	2.88928815683301	-1.6975831066046576	-0.0119	2.076890971844978	-0.8336810186948295	0.0301	2.2933839761939674	-1.2810221408162763	0.129	2.562857023129849	-1.7971836238598242	0.023	2.751351358938161	-2.0082115693260127	0.2179	2.6018052611609614	-2.076099596265982	0.1804	2.6732972041672185	-1.9641541733926207	-0.0119	1.707691434737765	0.15706553055946842	0.0008	1.5665454324305377	0.4196471847602912	0.0655	1.6068822753886278	0.2268887638537269	0.1076	2.0652606974782244	0.13771657403018675	-0.01275	2.473910620090769	-0.1880293608839866	0.0702	2.833087089288045	-0.3990950486127378	0.1076	1.5134178972188084	-0.1328366377180347	-0.01275	1.6842279950549326	-0.6579385550641476	0.0702	1.8260016854529888	-1.0750998627834938	0.1076
1626	54.225034642032334	2.20307148066962	-0.6478137896118267	0.0301	2.392183753251334	-0.6102069568043244	0.0301	2.6014977562156862	-1.0830512554424174	0.129	2.8228204850080516	-1.5347331492480583	0.023	2.8151389532736055	-1.7189963850923933	0.2179	2.9281022716915412	-1.657239253696749	0.1804	2.892067845870144	-1.6943281854384522	-0.0119	2.0666526473712388	-0.795964004916035	0.0301	2.2760757532293723	-1.2263554302194064	0.129	2.5404999174785625	-1.730272915765603	0.023	2.7148445486511936	-1.9136903460199324	0.2179	2.566260954861726	-1.9910073646219903	0.1804	2.653197735896791	-1.8975214892061616	-0.0119	1.7157339596696488	0.17241754576141705	0.0008	1.579846777037721	0.4284879774158977	0.0655	1.571282978037071	0.19201913464547715	0.1076	2.0687511784503134	0.15821219717480392	-0.01275	2.462931644343086	-0.14624007900813604	0.0702	2.8108957331561757	-0.3421334793544368	0.1076	1.5195113995713414	-0.10602497987039086	-0.01275	1.6800511094946602	-0.6202353474229868	0.0702	1.8249475165625488	-1.033325023817481	0.1076
1627	54.25838337182448	2.1959294225746024	-0.6190017966984329	0.0301	2.3801694838956666	-0.5755801269006959	0.0301	2.5941730395386244	-1.0625199877483225	0.129	2.819865037244614	-1.527241227494706	0.023	2.81913347988541	-1.7106475801506624	0.2179	2.936798292318838	-1.6558869743069438	0.1804	2.8948317270006974	-1.6877192317436271	-0.0119	2.052466464359245	-0.7588049625597787	0.0301	2.2594909437033333	-1.1716528717703314	0.129	2.511451427757311	-1.6474873170789996	0.023	2.6878652338946454	-1.8207549150578874	0.2179	2.536458318618435	-1.8992757875360624	0.1804	2.6176101266247604	-1.8029408792894466	-0.0119	1.7228659746478305	0.18420890529553963	0.0008	1.5848574055116769	0.4420844680347842	0.0655	1.5755066513354226	0.19305622369777142	0.1076	2.0697527537381024	0.17742976441811542	-0.01275	2.4454939388188355	-0.10661358509511307	0.0702	2.7821289932137683	-0.29102092097626225	0.1076	1.5227097286573001	-0.08492278934033054	-0.01275	1.672899363842078	-0.5858283456013582	0.0702	1.8186892343678682	-0.9880469517630499	0.1076
1628	54.29173210161663	2.188308165402102	-0.5966843024497451	0.0301	2.36683445228187	-0.5401757267404124	0.0301	2.5879270798712013	-1.0440364312772348	0.129	2.8170142605729773	-1.5203475222956122	0.023	2.8221931175456976	-1.7073245652916906	0.2179	2.941098390571698	-1.6565918399497215	0.1804	2.8941980684648865	-1.678673672982072	-0.0119	2.0373574770684084	-0.7256144698563396	0.0301	2.2484503634277098	-1.1239611736108244	0.129	2.481866883886769	-1.5640486448757491	0.023	2.6444385771841827	-1.7124100442774275	0.2179	2.5034634060127723	-1.7860562893820593	0.1804	2.5744642366715422	-1.7011302213702377	-0.0119	1.7272943245778556	0.19112977502989875	0.0008	1.582418353056859	0.46042466871704685	0.0655	1.5989735252800545	0.2187921798494743	0.1076	2.0642752430487414	0.19300634397569433	-0.01275	2.4252203971297592	-0.0707962798997679	0.0702	2.745977013817408	-0.2466103730166312	0.1076	1.5261694956005667	-0.0708895738900426	-0.01275	1.666892646195296	-0.5572521928574358	0.0702	1.8117187840501787	-0.9445252879786374	0.1076
1629	54.325080831408776	2.1795064135875366	-0.5799258996512826	0.0301	2.353289607571918	-0.5120372390726937	0.0301	2.581568547735129	-1.0282083692291293	0.129	2.815404772074171	-1.5176762629838991	0.023	2.8276791109864496	-1.7067708823676948	0.2179	2.9390194275253076	-1.6603060134873524	0.1804	2.890796920145444	-1.669690294122044	-0.0119	2.025655416676156	-0.6998063970207812	0.0301	2.2445744791022273	-1.0905792077878251	0.129	2.4615933178307516	-1.50410318936078	0.023	2.5765811699387657	-1.5861514236616152	0.2179	2.4635799692197335	-1.6592570837191658	0.1804	2.539887747516858	-1.6234519833171528	-0.0119	1.7266526810635459	0.1975784982680921	0.0008	1.5763345229831014	0.48353341373072106	0.0655	1.6241965985919777	0.25193344820437713	0.1076	2.0517814361594633	0.2035598238092011	-0.01275	2.4074388392343304	-0.0418262880122854	0.0702	2.702684998087274	-0.2078550726252749	0.1076	1.530411321422471	-0.061004955856121555	-0.01275	1.663364571173502	-0.5357398063873564	0.0702	1.8046848640382924	-0.9110210152117719	0.1076
1630	54.35842956120092	2.171330578368966	-0.5667840312510355	0.0301	2.346380687400743	-0.5008770871181922	0.0301	2.5755476347847344	-1.0175999927040225	0.129	2.8148105039986735	-1.5189629972604393	0.023	2.834642673057979	-1.7069170064139991	0.2179	2.9321651721149906	-1.6668906099826877	0.1804	2.884734658838496	-1.661949368734956	-0.0119	2.023653957845872	-0.6860841774594345	0.0301	2.2435832379799012	-1.0673898177595913	0.129	2.4521188397569875	-1.4626645034061607	0.023	2.4992524178496662	-1.4552053873337971	0.2179	2.4208126490465456	-1.5364599378168415	0.1804	2.521969024910248	-1.5700483028854348	-0.0119	1.719828878426517	0.20897550301344484	0.0008	1.5720514774724306	0.5021460856394229	0.0655	1.641370334100084	0.28267136013531063	0.1076	2.0366938388979072	0.21109149201366925	-0.01275	2.394342238820976	-0.021445087231586456	0.0702	2.6541952193173253	-0.17721508075584994	0.1076	1.532579876926125	-0.05290133171952143	-0.01275	1.6621748810989754	-0.5197473970766614	0.0702	1.7964766081263797	-0.8913128643289789	0.1076
1631	54.391778290993074	2.166765738100932	-0.5564878869244902	0.0301	2.349847787415483	-0.5063407499048904	0.0301	2.5712370189409812	-1.01219486638309	0.129	2.814411892721207	-1.522397266515243	0.023	2.8376796696727613	-1.7086257878801698	0.2179	2.9240385418163397	-1.6770914767776648	0.1804	2.8756318747356993	-1.6558817147151452	-0.0119	2.031662714172034	-0.6829003032110246	0.0301	2.2410268071632156	-1.0436091949651325	0.129	2.4470870051624694	-1.419502358341764	0.023	2.4373781236334735	-1.3449057610656783	0.2179	2.384197355256726	-1.4352356960293415	0.1804	2.51427709200482	-1.5214578250644772	-0.0119	1.7083046817577163	0.22432951502506873	0.0008	1.569989128906871	0.5087706025034263	0.0655	1.6437181507725647	0.3066360744642249	0.1076	2.023738450891048	0.2185011020973866	-0.01275	2.382855452658536	-0.008919846612976519	0.0702	2.6049338884533624	-0.15813260753906133	0.1076	1.5303754762315156	-0.045108968495291286	-0.01275	1.6607107980422489	-0.506150187554822	0.0702	1.787051069955383	-0.881797552873286	0.1076
1632	54.42512702078522	2.163493516866995	-0.5467517260969634	0.0301	2.354791852420214	-0.5132474552463393	0.0301	2.56589979159518	-1.0047094301299104	0.129	2.8121040542443527	-1.525675259828476	0.023	2.8341652157782184	-1.708015294459812	0.2179	2.9200187769765846	-1.6852893498501478	0.1804	2.8668555398056714	-1.65398362082195	-0.0119	2.038784686795024	-0.6791703256567462	0.0301	2.2361153305681807	-1.01364860380414	0.129	2.441048703179775	-1.3710710555192327	0.023	2.4064767491569046	-1.276228802153394	0.2179	2.3626857999874806	-1.36558016164805	0.1804	2.506095929352419	-1.4703161184217954	-0.0119	1.696584455145141	0.2355216247141081	0.0008	1.5657911148801686	0.5080479772759556	0.0655	1.6362512680617716	0.3196527608781151	0.1076	2.0126533729211347	0.225932795105591	-0.01275	2.368256148068326	-0.000438017946774446	0.0702	2.560052775415013	-0.14771206988995333	0.1076	1.5244878103697888	-0.03811655896906343	-0.01275	1.657084090432399	-0.4946724586065293	0.0702	1.7782458505361898	-0.8772169702296067	0.1076
1633	54.45847575057737	2.1549516307384446	-0.5337556123606275	0.0301	2.347582949240421	-0.5030054471823933	0.0301	2.555746505299606	-0.9886494082311758	0.129	2.8049895847738804	-1.5256215837112628	0.023	2.826675103804779	-1.7014975054903454	0.2179	2.922134944707687	-1.685177259673709	0.1804	2.8604541631827436	-1.6542637885108347	-0.0119	2.033287701250734	-0.6644045920726057	0.0301	2.230807924369016	-0.9815713496888135	0.129	2.435672383104351	-1.3296509083912054	0.023	2.40112097027613	-1.2471488051647848	0.2179	2.3574063026881276	-1.3269093297554204	0.1804	2.4966761464928524	-1.4262069040678715	-0.0119	1.6891661681207166	0.23422705563839247	0.0008	1.5557199951781417	0.5063567618218173	0.0655	1.6313605022011628	0.3192298374754012	0.1076	2.000768063741958	0.23141387512935205	-0.01275	2.349533700248966	0.0072407034501085045	0.0702	2.5227473230405484	-0.14026333914415545	0.1076	1.517241779186012	-0.033998606747918755	-0.01275	1.6525708465324431	-0.4887607702831778	0.0702	1.7706430129441335	-0.875721662400269	0.1076
1634	54.491824480369516	2.1386736924310634	-0.5179949067887519	0.0301	2.3265508121081053	-0.4749279123921679	0.0301	2.540626819460338	-0.9663497454505935	0.129	2.79371822856686	-1.51865183995025	0.023	2.821589481141086	-1.6963203567618526	0.2179	2.9283222735408354	-1.6793878363138932	0.1804	2.85361558561473	-1.6495825627894667	-0.0119	2.0162482631810854	-0.6414101140187388	0.0301	2.2272572217246616	-0.9561118504271541	0.129	2.4359248864969376	-1.3050829676709481	0.023	2.4055623847201444	-1.239021606365876	0.2179	2.360321235931207	-1.3124002663741707	0.1804	2.49159072708288	-1.3992933480258078	-0.0119	1.68359263080733	0.22291143954249282	0.0008	1.5392285171593043	0.5030344673956998	0.0655	1.6337359892319707	0.3127221982788678	0.1076	1.988370940794693	0.23404327440824652	-0.01275	2.3308024052657865	0.011112948235697221	0.0702	2.494240791757224	-0.13646260218805187	0.1076	1.5094018689339304	-0.032699554521293986	-0.01275	1.6467341968480198	-0.48787290885757506	0.0702	1.7605285797688501	-0.8746121480204642	0.1076
